<?xml version="1.0" encoding="UTF-8"?>
<svg width="700pt" height="700pt" version="1.1" viewBox="0 0 700 700" xmlns="http://www.w3.org/2000/svg" xmlns:xlink="http://www.w3.org/1999/xlink">
 <defs>
  <symbol id="v" overflow="visible">
   <path d="m18.766-1.125c-0.96875 0.5-1.9805 0.875-3.0312 1.125-1.043 0.25781-2.1367 0.39062-3.2812 0.39062-3.3984 0-6.0898-0.94531-8.0781-2.8438-1.9922-1.9062-2.9844-4.4844-2.9844-7.7344 0-3.2578 0.99219-5.8359 2.9844-7.7344 1.9883-1.9062 4.6797-2.8594 8.0781-2.8594 1.1445 0 2.2383 0.13281 3.2812 0.39062 1.0508 0.25 2.0625 0.625 3.0312 1.125v4.2188c-0.98047-0.65625-1.9453-1.1406-2.8906-1.4531-0.94922-0.3125-1.9492-0.46875-3-0.46875-1.875 0-3.3516 0.60547-4.4219 1.8125-1.0742 1.1992-1.6094 2.8555-1.6094 4.9688 0 2.1055 0.53516 3.7617 1.6094 4.9688 1.0703 1.1992 2.5469 1.7969 4.4219 1.7969 1.0508 0 2.0508-0.14844 3-0.45312 0.94531-0.3125 1.9102-0.80078 2.8906-1.4688z"/>
  </symbol>
  <symbol id="c" overflow="visible">
   <path d="m13.734-11.141c-0.4375-0.19531-0.87109-0.34375-1.2969-0.4375-0.41797-0.10156-0.83984-0.15625-1.2656-0.15625-1.2617 0-2.2305 0.40625-2.9062 1.2188-0.67969 0.80469-1.0156 1.9531-1.0156 3.4531v7.0625h-4.8906v-15.312h4.8906v2.5156c0.625-1 1.3438-1.7266 2.1562-2.1875 0.82031-0.46875 1.8008-0.70312 2.9375-0.70312 0.16406 0 0.34375 0.011719 0.53125 0.03125 0.19531 0.011719 0.47656 0.039062 0.84375 0.078125z"/>
  </symbol>
  <symbol id="a" overflow="visible">
   <path d="m17.641-7.7031v1.4062h-11.453c0.125 1.1484 0.53906 2.0078 1.25 2.5781 0.70703 0.57422 1.7031 0.85938 2.9844 0.85938 1.0312 0 2.082-0.14844 3.1562-0.45312 1.082-0.3125 2.1914-0.77344 3.3281-1.3906v3.7656c-1.1562 0.4375-2.3125 0.76562-3.4688 0.98438-1.1562 0.22656-2.3125 0.34375-3.4688 0.34375-2.7734 0-4.9297-0.70312-6.4688-2.1094-1.5312-1.4062-2.2969-3.3789-2.2969-5.9219 0-2.5 0.75391-4.4609 2.2656-5.8906 1.5078-1.4375 3.582-2.1562 6.2188-2.1562 2.4062 0 4.332 0.73047 5.7812 2.1875 1.4453 1.4492 2.1719 3.3828 2.1719 5.7969zm-5.0312-1.625c0-0.92578-0.27344-1.6719-0.8125-2.2344-0.54297-0.57031-1.25-0.85938-2.125-0.85938-0.94922 0-1.7188 0.26562-2.3125 0.79688s-0.96484 1.2969-1.1094 2.2969z"/>
  </symbol>
  <symbol id="e" overflow="visible">
   <path d="m9.2188-6.8906c-1.0234 0-1.793 0.17188-2.3125 0.51562-0.51172 0.34375-0.76562 0.85547-0.76562 1.5312 0 0.625 0.20703 1.1172 0.625 1.4688 0.41406 0.34375 0.98828 0.51562 1.7188 0.51562 0.92578 0 1.7031-0.32812 2.3281-0.98438 0.63281-0.66406 0.95312-1.4922 0.95312-2.4844v-0.5625zm7.4688-1.8438v8.7344h-4.9219v-2.2656c-0.65625 0.92969-1.3984 1.6055-2.2188 2.0312-0.82422 0.41406-1.8242 0.625-3 0.625-1.5859 0-2.8711-0.45703-3.8594-1.375-0.99219-0.92578-1.4844-2.1289-1.4844-3.6094 0-1.7891 0.61328-3.1016 1.8438-3.9375 1.2383-0.84375 3.1797-1.2656 5.8281-1.2656h2.8906v-0.39062c0-0.76953-0.30859-1.332-0.92188-1.6875-0.61719-0.36328-1.5703-0.54688-2.8594-0.54688-1.0547 0-2.0312 0.10547-2.9375 0.3125-0.89844 0.21094-1.7305 0.52344-2.5 0.9375v-3.7344c1.0391-0.25 2.0859-0.44141 3.1406-0.57812 1.0625-0.13281 2.125-0.20312 3.1875-0.20312 2.7578 0 4.75 0.54688 5.9688 1.6406 1.2266 1.0859 1.8438 2.8555 1.8438 5.3125z"/>
  </symbol>
  <symbol id="b" overflow="visible">
   <path d="m7.7031-19.656v4.3438h5.0469v3.5h-5.0469v6.5c0 0.71094 0.14062 1.1875 0.42188 1.4375s0.83594 0.375 1.6719 0.375h2.5156v3.5h-4.1875c-1.9375 0-3.3125-0.39844-4.125-1.2031-0.80469-0.8125-1.2031-2.1797-1.2031-4.1094v-6.5h-2.4219v-3.5h2.4219v-4.3438z"/>
  </symbol>
  <symbol id="j" overflow="visible">
   <path d="m12.766-13.078v-8.2031h4.9219v21.281h-4.9219v-2.2188c-0.66797 0.90625-1.4062 1.5703-2.2188 1.9844s-1.7578 0.625-2.8281 0.625c-1.8867 0-3.4336-0.75-4.6406-2.25-1.2109-1.5-1.8125-3.4258-1.8125-5.7812 0-2.3633 0.60156-4.2969 1.8125-5.7969 1.207-1.5 2.7539-2.25 4.6406-2.25 1.0625 0 2 0.21484 2.8125 0.64062 0.82031 0.42969 1.5664 1.0859 2.2344 1.9688zm-3.2188 9.9219c1.0391 0 1.8359-0.37891 2.3906-1.1406 0.55078-0.76953 0.82812-1.8828 0.82812-3.3438 0-1.457-0.27734-2.5664-0.82812-3.3281-0.55469-0.76953-1.3516-1.1562-2.3906-1.1562-1.043 0-1.8398 0.38672-2.3906 1.1562-0.55469 0.76172-0.82812 1.8711-0.82812 3.3281 0 1.4609 0.27344 2.5742 0.82812 3.3438 0.55078 0.76172 1.3477 1.1406 2.3906 1.1406z"/>
  </symbol>
  <symbol id="i" overflow="visible">
   <path d="m10.5-3.1562c1.0508 0 1.8516-0.37891 2.4062-1.1406 0.55078-0.76953 0.82812-1.8828 0.82812-3.3438 0-1.457-0.27734-2.5664-0.82812-3.3281-0.55469-0.76953-1.3555-1.1562-2.4062-1.1562-1.0547 0-1.8594 0.38672-2.4219 1.1562-0.55469 0.77344-0.82812 1.8828-0.82812 3.3281 0 1.4492 0.27344 2.5586 0.82812 3.3281 0.5625 0.77344 1.3672 1.1562 2.4219 1.1562zm-3.25-9.9219c0.67578-0.88281 1.4219-1.5391 2.2344-1.9688 0.82031-0.42578 1.7656-0.64062 2.8281-0.64062 1.8945 0 3.4453 0.75 4.6562 2.25 1.207 1.5 1.8125 3.4336 1.8125 5.7969 0 2.3555-0.60547 4.2812-1.8125 5.7812-1.2109 1.5-2.7617 2.25-4.6562 2.25-1.0625 0-2.0078-0.21094-2.8281-0.625-0.8125-0.42578-1.5586-1.0859-2.2344-1.9844v2.2188h-4.8906v-21.281h4.8906z"/>
  </symbol>
  <symbol id="h" overflow="visible">
   <path d="m0.34375-15.312h4.8906l4.125 10.391 3.5-10.391h4.8906l-6.4375 16.766c-0.64844 1.6953-1.4023 2.8828-2.2656 3.5625-0.86719 0.6875-2 1.0312-3.4062 1.0312h-2.8438v-3.2188h1.5312c0.83203 0 1.4375-0.13672 1.8125-0.40625 0.38281-0.26172 0.67969-0.73047 0.89062-1.4062l0.14062-0.42188z"/>
  </symbol>
  <symbol id="g" overflow="visible">
   <path d="m7.8281-16.438v12.453h1.8906c2.1562 0 3.8008-0.53125 4.9375-1.5938 1.1328-1.0625 1.7031-2.6133 1.7031-4.6562 0-2.0195-0.57031-3.5547-1.7031-4.6094-1.125-1.0625-2.7734-1.5938-4.9375-1.5938zm-5.25-3.9688h5.5469c3.0938 0 5.3984 0.21875 6.9219 0.65625 1.5195 0.4375 2.8203 1.1875 3.9062 2.25 0.95703 0.91797 1.6641 1.9805 2.125 3.1875 0.46875 1.1992 0.70312 2.5586 0.70312 4.0781 0 1.543-0.23438 2.918-0.70312 4.125-0.46094 1.2109-1.168 2.2773-2.125 3.2031-1.0938 1.0547-2.4062 1.8047-3.9375 2.25-1.5312 0.4375-3.8281 0.65625-6.8906 0.65625h-5.5469z"/>
  </symbol>
  <symbol id="f" overflow="visible">
   <path d="m17.75-9.3281v9.3281h-4.9219v-7.1406c0-1.3203-0.03125-2.2344-0.09375-2.7344s-0.16797-0.86719-0.3125-1.1094c-0.1875-0.3125-0.44922-0.55469-0.78125-0.73438-0.32422-0.17578-0.69531-0.26562-1.1094-0.26562-1.0234 0-1.8242 0.39844-2.4062 1.1875-0.58594 0.78125-0.875 1.8711-0.875 3.2656v7.5312h-4.8906v-15.312h4.8906v2.2344c0.73828-0.88281 1.5195-1.5391 2.3438-1.9688 0.83203-0.42578 1.75-0.64062 2.75-0.64062 1.7695 0 3.1133 0.54688 4.0312 1.6406 0.91406 1.0859 1.375 2.6562 1.375 4.7188z"/>
  </symbol>
  <symbol id="u" overflow="visible">
   <path d="m2.5781-20.406h5.25v7.7656h7.7656v-7.7656h5.2656v20.406h-5.2656v-8.6562h-7.7656v8.6562h-5.25z"/>
  </symbol>
  <symbol id="t" overflow="visible">
   <path d="m2.3594-15.312h4.8906v15.312h-4.8906zm0-5.9688h4.8906v4h-4.8906z"/>
  </symbol>
  <symbol id="s" overflow="visible">
   <path d="m6.2188-7.8281-5.5156-7.4844h5.1719l3.1406 4.5312 3.1719-4.5312h5.1719l-5.5156 7.4531 5.7969 7.8594h-5.1875l-3.4375-4.8438-3.4062 4.8438h-5.1875z"/>
  </symbol>
  <symbol id="r" overflow="visible">
   <path d="m12.422-21.281v3.2188h-2.7031c-0.6875 0-1.1719 0.125-1.4531 0.375-0.27344 0.25-0.40625 0.6875-0.40625 1.3125v1.0625h4.1875v3.5h-4.1875v11.812h-4.8906v-11.812h-2.4375v-3.5h2.4375v-1.0625c0-1.6641 0.46094-2.8984 1.3906-3.7031 0.92578-0.80078 2.3672-1.2031 4.3281-1.2031z"/>
  </symbol>
  <symbol id="d" overflow="visible">
   <path d="m9.6406-12.188c-1.0859 0-1.9141 0.39062-2.4844 1.1719-0.57422 0.78125-0.85938 1.9062-0.85938 3.375s0.28516 2.5938 0.85938 3.375c0.57031 0.77344 1.3984 1.1562 2.4844 1.1562 1.0625 0 1.875-0.38281 2.4375-1.1562 0.57031-0.78125 0.85938-1.9062 0.85938-3.375s-0.28906-2.5938-0.85938-3.375c-0.5625-0.78125-1.375-1.1719-2.4375-1.1719zm0-3.5c2.6328 0 4.6914 0.71484 6.1719 2.1406 1.4766 1.418 2.2188 3.3867 2.2188 5.9062 0 2.5117-0.74219 4.4805-2.2188 5.9062-1.4805 1.418-3.5391 2.125-6.1719 2.125-2.6484 0-4.7148-0.70703-6.2031-2.125-1.4922-1.4258-2.2344-3.3945-2.2344-5.9062 0-2.5195 0.74219-4.4883 2.2344-5.9062 1.4883-1.4258 3.5547-2.1406 6.2031-2.1406z"/>
  </symbol>
  <symbol id="q" overflow="visible">
   <path d="m16.547-12.766c0.61328-0.94531 1.3477-1.6719 2.2031-2.1719 0.85156-0.5 1.7891-0.75 2.8125-0.75 1.7578 0 3.0977 0.54688 4.0156 1.6406 0.92578 1.0859 1.3906 2.6562 1.3906 4.7188v9.3281h-4.9219v-7.9844-0.35938c0.007813-0.13281 0.015625-0.32031 0.015625-0.5625 0-1.082-0.16406-1.8633-0.48438-2.3438-0.3125-0.48828-0.82422-0.73438-1.5312-0.73438-0.92969 0-1.6484 0.38672-2.1562 1.1562-0.51172 0.76172-0.77344 1.8672-0.78125 3.3125v7.5156h-4.9219v-7.9844c0-1.6953-0.14844-2.7852-0.4375-3.2656-0.29297-0.48828-0.8125-0.73438-1.5625-0.73438-0.9375 0-1.6641 0.38672-2.1719 1.1562-0.51172 0.76172-0.76562 1.8594-0.76562 3.2969v7.5312h-4.9219v-15.312h4.9219v2.2344c0.60156-0.86328 1.2891-1.5156 2.0625-1.9531 0.78125-0.4375 1.6406-0.65625 2.5781-0.65625 1.0625 0 2 0.25781 2.8125 0.76562 0.8125 0.51172 1.4258 1.2305 1.8438 2.1562z"/>
  </symbol>
  <symbol id="p" overflow="visible">
   <path d="m17.75-9.3281v9.3281h-4.9219v-7.1094c0-1.3438-0.03125-2.2656-0.09375-2.7656s-0.16797-0.86719-0.3125-1.1094c-0.1875-0.3125-0.44922-0.55469-0.78125-0.73438-0.32422-0.17578-0.69531-0.26562-1.1094-0.26562-1.0234 0-1.8242 0.39844-2.4062 1.1875-0.58594 0.78125-0.875 1.8711-0.875 3.2656v7.5312h-4.8906v-21.281h4.8906v8.2031c0.73828-0.88281 1.5195-1.5391 2.3438-1.9688 0.83203-0.42578 1.75-0.64062 2.75-0.64062 1.7695 0 3.1133 0.54688 4.0312 1.6406 0.91406 1.0859 1.375 2.6562 1.375 4.7188z"/>
  </symbol>
  <symbol id="o" overflow="visible">
   <path d="m2.5781-20.406h5.875l7.4219 14v-14h4.9844v20.406h-5.875l-7.4219-14v14h-4.9844z"/>
  </symbol>
  <symbol id="n" overflow="visible">
   <path d="m2.1875-5.9688v-9.3438h4.9219v1.5312c0 0.83594-0.007813 1.875-0.015625 3.125-0.011719 1.25-0.015625 2.0859-0.015625 2.5 0 1.2422 0.03125 2.1328 0.09375 2.6719 0.070313 0.54297 0.17969 0.93359 0.32812 1.1719 0.20703 0.32422 0.47266 0.57422 0.79688 0.75 0.32031 0.16797 0.69141 0.25 1.1094 0.25 1.0195 0 1.8203-0.39062 2.4062-1.1719 0.58203-0.78125 0.875-1.8672 0.875-3.2656v-7.5625h4.8906v15.312h-4.8906v-2.2188c-0.74219 0.89844-1.5234 1.5586-2.3438 1.9844-0.82422 0.41406-1.7344 0.625-2.7344 0.625-1.7617 0-3.1055-0.53906-4.0312-1.625-0.92969-1.082-1.3906-2.6602-1.3906-4.7344z"/>
  </symbol>
  <symbol id="m" overflow="visible">
   <path d="m2.5781-20.406h8.7344c2.5938 0 4.582 0.57812 5.9688 1.7344 1.3945 1.1484 2.0938 2.7891 2.0938 4.9219 0 2.1367-0.69922 3.7812-2.0938 4.9375-1.3867 1.1562-3.375 1.7344-5.9688 1.7344h-3.4844v7.0781h-5.25zm5.25 3.8125v5.7031h2.9219c1.0195 0 1.8047-0.25 2.3594-0.75 0.5625-0.5 0.84375-1.2031 0.84375-2.1094 0-0.91406-0.28125-1.6172-0.84375-2.1094-0.55469-0.48828-1.3398-0.73438-2.3594-0.73438z"/>
  </symbol>
  <symbol id="l" overflow="visible">
   <path d="m2.3594-15.312h4.8906v15.031c0 2.0508-0.49609 3.6172-1.4844 4.7031-0.98047 1.082-2.4062 1.625-4.2812 1.625h-2.4219v-3.2188h0.85938c0.92578 0 1.5625-0.21094 1.9062-0.625 0.35156-0.41797 0.53125-1.2461 0.53125-2.4844zm0-5.9688h4.8906v4h-4.8906z"/>
  </symbol>
  <symbol id="k" overflow="visible">
   <path d="m14.719-14.828v3.9844c-0.65625-0.45703-1.3242-0.79688-2-1.0156-0.66797-0.21875-1.3594-0.32812-2.0781-0.32812-1.3672 0-2.4336 0.40234-3.2031 1.2031-0.76172 0.79297-1.1406 1.9062-1.1406 3.3438 0 1.4297 0.37891 2.543 1.1406 3.3438 0.76953 0.79297 1.8359 1.1875 3.2031 1.1875 0.75781 0 1.4844-0.10938 2.1719-0.32812 0.6875-0.22656 1.3203-0.56641 1.9062-1.0156v4c-0.76172 0.28125-1.5391 0.48828-2.3281 0.625-0.78125 0.14453-1.5742 0.21875-2.375 0.21875-2.7617 0-4.9219-0.70703-6.4844-2.125-1.5547-1.4141-2.3281-3.3828-2.3281-5.9062 0-2.5312 0.77344-4.5039 2.3281-5.9219 1.5625-1.4141 3.7227-2.125 6.4844-2.125 0.80078 0 1.5938 0.074219 2.375 0.21875 0.78125 0.13672 1.5547 0.35156 2.3281 0.64062z"/>
  </symbol>
 </defs>
 <g>
  <path d="m543.03 425.94c-7.5039-5.4805-17.527-12.824-35.559-13.609-0.95312-0.054687-2.0156-0.054687-3.1914-0.054687-1.0078 0-2.1289 0-3.1367 0.054687-17.922 0.78516-28.168 8.1211-35.617 13.609-5.7109 4.0391-9.1836 6.4961-16.016 7.168-1.0078 0.054687-2.0664 0.054687-3.1875 0.054687-1.0625 0-2.1914 0-3.0781-0.054687-6.8359-0.67188-10.367-3.1367-16.016-7.168-7.5586-5.4805-17.695-12.824-35.672-13.609-1.0586-0.054687-2.0703-0.054687-3.2461-0.054687-1.0586 0-2.0703 0-3.0781 0.054687-17.922 0.78516-28.117 8.1211-35.672 13.609-5.6562 4.0391-9.1836 6.4961-16.016 7.168-0.89453 0.054687-2.0156 0.054687-3.0781 0.054687-1.1758 0-2.1836 0-3.1914-0.054687-6.832-0.67188-10.305-3.1367-16.016-7.168-7.5039-5.4805-17.695-12.824-35.617-13.609-1.0078-0.054687-2.1836-0.054687-3.1914-0.054687-1.0625 0-2.1836 0-3.1914 0.054687-17.922 0.78516-28.055 8.1211-35.617 13.609-5.6016 4.0391-9.1836 6.4961-16.016 7.168-1.0078 0.054687-2.0156 0.054687-3.1914 0.054687-1.0625 0-2.1836 0-3.0781-0.054687-6.832-0.67188-10.359-3.1367-16.016-7.168-7.5586-5.4805-17.641-12.824-35.617-13.609-0.78516-0.054687-1.5664-0.054687-24.191-0.054687 11.871 19.32 26.32 36.848 42.84 52.191 3.5273 0.78516 7.3359 1.2812 11.535 1.457 1.1758 0.16797 2.3516 0.16797 3.5273 0.16797s2.4648 0 3.5859-0.16797c20.105-0.83984 31.527-9.0156 40.039-15.121 6.3281-4.5352 10.191-7.3906 17.809-8.0625 1.1758-0.054687 2.4062-0.054687 3.6406-0.054687 1.1758 0 2.4648 0 3.5859 0.054687 7.6172 0.67188 11.48 3.5352 17.809 8.0625 8.5117 6.1055 19.938 14.281 40.039 15.121 1.1211 0.16797 2.2969 0.16797 3.5859 0.16797 1.1758 0 2.2969 0 3.4727-0.16797 20.16-0.83984 31.523-9.0156 40.039-15.121 6.3281-4.5352 10.305-7.3906 17.922-8.0625 1.0078-0.054687 2.2969-0.054687 3.4727-0.054687 1.3398 0 2.457 0 3.5859 0.054687 7.6719 0.67188 11.648 3.5352 17.977 8.0625 8.5195 6.1055 19.879 14.281 40.039 15.121 1.1133 0.16797 2.2344 0.16797 3.4727 0.16797 1.2305 0 2.457 0 3.5859-0.16797 20.105-0.83984 31.527-9.0156 39.93-15.121 6.3828-4.5352 10.246-7.3906 17.922-8.0625 1.1211-0.054687 2.2344-0.054687 3.5859-0.054687 1.3477 0 2.4648 0 3.5898 0.054687 6.4336 0.56641 10.188 2.6875 15.059 6.0469 5.0977-5.6562 9.918-11.535 14.504-17.586-2.832-1.2305-5.3516-2.9688-8.6562-5.2617z"/>
  <path d="m453.49 503.78c-22.289 0-34.559-8.7344-43.52-15.23-7.2227-5.1523-11.312-8.1758-21.559-8.1758-10.023 0-14.168 3.0234-21.391 8.1758-9.0156 6.4336-21.223 15.23-43.512 15.23-22.344 0-34.664-8.7344-43.625-15.23-7.2812-5.1523-11.258-8.1758-21.449-8.1758-10.137 0-14.168 3.0234-21.391 8.1758-3.9766 2.8555-8.5664 6.1602-14.449 8.9023 37.359 21.949 80.926 34.551 127.41 34.551 43.008 0 83.496-10.809 118.95-29.793-4.5391 1.0078-9.6328 1.5703-15.457 1.5703z"/>
  <path d="m300.89 354.54c0.89453 3.1914 1.6797 13.719 2.2969 24.086h-12.32c-0.22266-8.8477-0.16797-17.641 1.0078-21.062 2.6328-7.9531 2.2383-15.457 1.457-19.656-0.72656-4.1445 3.8086-37.742 5.7109-42.281 1.8477-4.4805 1.8477-4.4805 1.8477-4.4805l1.5117 7.5039s0.78516 29.457-0.72656 34.719c-1.5117 5.3242-2.6328 14.398-0.78516 21.172z"/>
  <path d="m602 280c0 42.449-10.527 82.434-29.062 117.54l-0.058594 0.058593c-2.8008 1.2305-5.9375 1.9023-10.527 1.9023-9.0703 0-12.656-2.6328-19.258-7.2812-7.8945-5.8242-18.766-13.609-38.758-13.609-19.938 0-30.91 7.7852-38.809 13.609-6.5508 4.6484-10.078 7.2812-19.207 7.2812-9.0156 0-12.602-2.6328-19.098-7.2812-8.0078-5.8242-18.93-13.609-38.922-13.609h-5.9922c0.33984-2.1289 0.67188-4.3164 0.89453-6.6133 0.44922-2.4062 0.95312-4.9297 1.3984-7.4492 0.50391-2.4062 1.2383-4.6484 1.8477-7 0.44922-1.1133 0.89453-2.2344 1.3438-3.3047 0.50391-1.2305 0.95312-2.4062 1.457-3.5859 1.0117-2.2969 1.625-4.8711 2.5742-6.7188 1.0117-1.9023 1.7422-3.8594 2.5742-5.6562 0.67187-1.793 1.3438-3.5273 2.1289-4.9297 0.67188-1.5195 1.3438-2.8008 1.793-3.9766 0.89453-1.9023 1.457-3.1914 1.5664-3.4727-0.11719 0.054688-0.39062 0.22266-0.83984 0.44922-0.60938 0.28125-1.5117 0.72656-2.5195 1.457-1.9609 1.5117-4.9844 3.4727-7.8359 6.7188-1.3984 1.625-3.1406 3.3047-4.7031 5.3203-1.625 1.9609-2.7422 3.9766-4.0898 6.2109-0.67188 1.0625-1.3438 2.1914-2.0117 3.3047-0.33984 0.56641-0.67188 1.1211-0.95703 1.7422l-0.50391 0.83594-0.22266 0.44922-0.11328 0.22266-0.22266 0.44922-0.054688 0.16797c-1.0117 2.6836-2.1914 5.4805-3.0234 8.2812-0.72656 2.8008-1.3984 5.6016-1.9648 8.3438-0.50391 2.7422-0.89453 5.4336-1.2305 8.0625 0 0.22266-0.054688 0.44922-0.054688 0.67188h-9.0156c0.33984-3.3672 0.72656-6.8867 1.1211-10.527 0.50391-3.4727 1.0078-7.0625 1.5117-10.641 0.67188-3.5273 1.3438-7.168 2.0156-10.754 0.89453-3.4727 2.0703-6.7773 2.9688-10.191 1.1758-3.0234 2.7422-6.8828 4.082-9.9688 1.5195-3.0234 2.8633-5.9375 4.3672-8.7344 1.5078-2.8008 2.6875-5.6016 4.0898-8.0625 2.5156-5.0898 4.6406-9.4062 6.1055-12.375 1.457-3.1367 2.2969-4.9844 2.2969-4.9844v-0.035157s-1.9102 0.83594-4.8164 2.8008c-2.9688 1.9609-6.7773 5.207-10.809 9.6328-2.0156 2.1836-3.9766 4.8164-5.9922 7.5586-2.0156 2.8008-3.6953 6.1094-5.6562 9.4141-1.793 3.3594-3.2461 6.3281-5.0977 10.137-1.3984 3.8125-2.8555 7.7266-4.0312 11.648-0.83984 3.9219-1.9023 7.7891-2.6328 11.648-0.61719 3.8633-1.1758 7.6719-1.6797 11.316-0.44922 4.2578-0.83984 8.3398-1.1211 12.152h-8.793c0.34766-3.4297 0.51562-7.1797 0.96094-11.043 0.50391-4.4258 1.0078-9.1289 1.5117-13.938 0.67188-4.7656 1.3984-9.6875 2.1289-14.734 0.95312-4.8672 1.9609-9.9102 2.9688-14.891 1.2305-4.8164 2.8008-9.5195 4.1445-14.285 1.9609-4.6406 3.9219-9.2344 5.8281-13.715 2.0703-4.1992 3.9766-8.3438 5.9883-12.266 2.1289-3.8633 3.9219-7.6719 5.8867-11.031 3.7539-6.7773 7.1133-12.434 9.5156-16.352 2.4141-3.9766 3.8633-6.2148 3.8633-6.2148s-2.2969 1.3984-5.8789 4.4258c-3.5898 3.0781-8.5195 7.6172-13.664 13.887-2.7422 2.9688-5.207 6.6094-7.9531 10.359-2.7422 3.6953-5.0391 8.1758-7.7852 12.543-2.4062 4.5352-4.3125 8.8477-6.7773 13.938-1.7344 5.1562-3.8086 10.367-5.3203 15.625-1.1758 5.2656-2.4648 10.59-3.5273 15.793-0.78516 5.2656-1.5117 10.414-2.2383 15.398-1.0625 9.6875-1.793 18.703-2.0703 26.488h-16.465c-0.39062-10.473-0.50391-21.062 0.39063-23.688 1.9023-5.6562 1.1211-12.824-0.72656-18.145-1.9023-5.2578-1.1758-18.48-0.39062-32.48 0.72656-13.945 8.6797-43.793 8.6797-43.793s23.801-30.184 35.504-36.961c11.703-6.832 43.398-32.871 34.328-69.496-9.0703-36.625-24.922-31.695-33.602-34.328-8.6797-2.6328-7.9531-17.754 0-18.871 7.9531-1.1211 30.184-2.6328 30.184-2.6328s7.168 4.1445 29.461 6.7773c22.281 2.6328 30.184 0.78516 30.184 0.78516s-15.062-9.4648-30.91-13.215c-15.91-3.8086-30.238-9.8555-30.238-9.8555s-17.754-13.945-32.09-8.2891-26.375 16.238-23.406 35.84c3.0234 19.656 14.391 30.574 25.703 32.48 11.312 1.9023 16.969 6.832 14.723 22.289-1.9023 13.047-10.977 15.848-14.723 14.336-3.8086-1.5117-16.238-16.238-29.062-16.633-12.879-0.33594-23.406 3.4141-52.078 35.504-28.727 32.09-44.184 59.305-52.527 77-8.2891 17.754-18.09 52.473-18.48 63.785-0.39063 11.367 5.3203 9.4648 9.8008 2.6836 4.5352-6.832 16.633-26.035 25.703-31.754 9.0703-5.6562 53.594-30.91 53.594-30.91s3.7539 8.2812 2.6328 19.207c-1.1211 10.977-3.7539 29.121-6.3828 35.895-2.6875 6.7773-3.4141 16.633-1.9023 26.039 0.61719 3.6953 1.0078 10.914 1.3438 18.426h-15.68c-0.33594-2.0703-0.67187-4.1445-1.0078-6.2734-0.50391-2.5742-1.2305-5.2148-1.8477-7.7891-0.78516-2.6328-1.793-5.3125-2.8008-7.8906l-0.28125-0.61719-0.11328-0.16797-0.22266-0.44922-0.44922-0.78516-0.89453-1.5664c-0.61719-1.0586-1.1758-2.1289-1.793-3.1367-1.2305-2.0703-2.0703-4.0391-3.5859-5.9414-1.457-1.8477-2.9102-3.5859-4.3672-5.0352-2.8555-3.0234-5.8242-4.7656-7.8945-5.9414-2.1289-1.1211-3.5273-1.457-3.5273-1.457h-0.054687s0.39062 1.457 1.0625 3.6953c0.33594 1.1211 0.78516 2.4062 1.3438 3.8594 0.61719 1.3984 1.1758 2.9688 1.7344 4.6484 0.61719 1.6875 1.3984 3.4141 2.2969 5.0977 0.89453 1.7422 1.7344 4.0312 2.6875 6.1641 0.83984 2.0117 1.7344 4.1367 2.6328 6.2656 0.50391 2.1914 1.2305 4.1992 1.7344 6.4414 0.44922 2.2969 0.83984 4.5938 1.2305 6.832 0.16797 1.3438 0.39062 2.6875 0.55859 4.0391h-7.8945c-0.16797-0.72656-0.33594-1.5195-0.55859-2.2383-0.67188-1.9023-1.457-3.8086-2.1836-5.6562l-0.29297-0.55078-0.054687-0.11328-0.16797-0.28125-0.33594-0.56641-0.67188-1.1133c-0.44922-0.73438-0.95312-1.4609-1.3984-2.1328-0.95312-1.457-1.793-2.6836-2.9688-3.9766-1.1211-1.2812-2.4062-2.4062-3.4727-3.4102-2.1289-2.0703-4.3125-3.1914-5.7695-4.0391-0.72656-0.38672-1.457-0.60938-1.8477-0.78516-0.44922-0.16797-0.67188-0.22266-0.67188-0.22266s0.22266 0.95312 0.72656 2.5742c0.39062 1.625 1.2891 3.7539 1.9023 6.2148 0.39063 1.1758 0.72656 2.5195 1.2891 3.7539 0.50391 1.2305 0.83984 2.9688 1.3984 4.4805 0.28125 0.78516 0.61719 1.625 0.89453 2.4062l0.44922 1.2383 0.28125 0.55859 0.054688 0.28125c0.22266 1.1758 0.55859 2.3516 0.78516 3.5898l-117.49 0.003906c-12.934-30.301-20.047-63.676-20.047-98.621 0-139.16 112.84-252 252-252s252 112.84 252 252z"/>
  <use x="70" y="644" xlink:href="#v"/>
  <use x="90.550781" y="644" xlink:href="#c"/>
  <use x="104.359375" y="644" xlink:href="#a"/>
  <use x="123.347656" y="644" xlink:href="#e"/>
  <use x="142.242188" y="644" xlink:href="#b"/>
  <use x="155.628906" y="644" xlink:href="#a"/>
  <use x="174.617188" y="644" xlink:href="#j"/>
  <use x="204.410156" y="644" xlink:href="#i"/>
  <use x="224.453125" y="644" xlink:href="#h"/>
  <use x="252.453125" y="644" xlink:href="#g"/>
  <use x="275.695312" y="644" xlink:href="#e"/>
  <use x="294.585938" y="644" xlink:href="#f"/>
  <use x="324.269531" y="644" xlink:href="#u"/>
  <use x="347.703125" y="644" xlink:href="#a"/>
  <use x="366.695312" y="644" xlink:href="#b"/>
  <use x="380.078125" y="644" xlink:href="#b"/>
  <use x="393.460938" y="644" xlink:href="#a"/>
  <use x="412.453125" y="644" xlink:href="#t"/>
  <use x="422.050781" y="644" xlink:href="#s"/>
  <use x="70" y="672" xlink:href="#r"/>
  <use x="82.183594" y="672" xlink:href="#c"/>
  <use x="95.992188" y="672" xlink:href="#d"/>
  <use x="115.226562" y="672" xlink:href="#q"/>
  <use x="154.152344" y="672" xlink:href="#b"/>
  <use x="167.535156" y="672" xlink:href="#p"/>
  <use x="187.46875" y="672" xlink:href="#a"/>
  <use x="216.207031" y="672" xlink:href="#o"/>
  <use x="239.640625" y="672" xlink:href="#d"/>
  <use x="258.878906" y="672" xlink:href="#n"/>
  <use x="278.8125" y="672" xlink:href="#f"/>
  <use x="308.492188" y="672" xlink:href="#m"/>
  <use x="329.015625" y="672" xlink:href="#c"/>
  <use x="342.820312" y="672" xlink:href="#d"/>
  <use x="362.058594" y="672" xlink:href="#l"/>
  <use x="371.65625" y="672" xlink:href="#a"/>
  <use x="390.648438" y="672" xlink:href="#k"/>
  <use x="407.242188" y="672" xlink:href="#b"/>
 </g>
</svg>
